<svg width="22" height="18" viewBox="0 0 22 18" fill="none" xmlns="http://www.w3.org/2000/svg">
<path d="M4.889 13H1C0.734784 13 0.48043 12.8946 0.292893 12.7071C0.105357 12.5196 0 12.2652 0 12V5.99999C0 5.73477 0.105357 5.48042 0.292893 5.29288C0.48043 5.10535 0.734784 4.99999 1 4.99999H4.889L10.183 0.667991C10.2563 0.607938 10.3451 0.569927 10.4391 0.558384C10.5331 0.546841 10.6284 0.56224 10.714 0.602788C10.7996 0.643337 10.872 0.707367 10.9226 0.787423C10.9732 0.86748 11.0001 0.96027 11 1.05499V16.945C11.0001 17.0397 10.9732 17.1325 10.9226 17.2126C10.872 17.2926 10.7996 17.3566 10.714 17.3972C10.6284 17.4377 10.5331 17.4531 10.4391 17.4416C10.3451 17.4301 10.2563 17.392 10.183 17.332L4.89 13H4.889ZM18.406 17.134L16.99 15.718C17.938 14.8745 18.6964 13.8397 19.2152 12.6817C19.734 11.5237 20.0015 10.2689 20 8.99999C20.0012 7.66608 19.7054 6.34864 19.1339 5.14336C18.5624 3.93808 17.7296 2.87523 16.696 2.03199L18.116 0.611991C19.3345 1.64354 20.3132 2.92847 20.9841 4.37719C21.6549 5.8259 22.0016 7.40351 22 8.99999C22 12.223 20.614 15.122 18.406 17.134ZM14.863 13.591L13.441 12.169C13.9265 11.7957 14.3196 11.3157 14.5899 10.7662C14.8602 10.2167 15.0006 9.61239 15 8.99999C15 7.56999 14.25 6.31499 13.12 5.60799L14.559 4.16899C15.3165 4.72618 15.9321 5.45384 16.3562 6.29311C16.7802 7.13237 17.0008 8.05967 17 8.99999C17 10.842 16.17 12.49 14.863 13.591Z" fill="white"/>
</svg>
